<mxfile host="app.diagrams.net" modified="2022-06-17T10:35:08.937Z" agent="5.0 (Macintosh; Intel Mac OS X 10_15_7) AppleWebKit/537.36 (KHTML, like Gecko) Chrome/102.0.0.0 Safari/537.36" etag="l3zPF9xDUyyYzKF-myua" version="20.0.1" type="github">
  <diagram id="RyJYwps4tN8OOiIkGgkd" name="第 1 页">
    <mxGraphModel dx="1324" dy="694" grid="1" gridSize="10" guides="1" tooltips="1" connect="1" arrows="1" fold="1" page="1" pageScale="1" pageWidth="827" pageHeight="1169" math="0" shadow="0">
      <root>
        <mxCell id="0" />
        <mxCell id="1" parent="0" />
        <mxCell id="0eGZFxeLxxKvC2eL4ryd-32" value="" style="rounded=0;whiteSpace=wrap;html=1;" vertex="1" parent="1">
          <mxGeometry x="490" y="450" width="200" height="140" as="geometry" />
        </mxCell>
        <mxCell id="0eGZFxeLxxKvC2eL4ryd-14" value="" style="edgeStyle=orthogonalEdgeStyle;rounded=0;orthogonalLoop=1;jettySize=auto;html=1;" edge="1" parent="1" source="0eGZFxeLxxKvC2eL4ryd-1" target="0eGZFxeLxxKvC2eL4ryd-6">
          <mxGeometry relative="1" as="geometry" />
        </mxCell>
        <mxCell id="0eGZFxeLxxKvC2eL4ryd-1" value="" style="rounded=0;whiteSpace=wrap;html=1;" vertex="1" parent="1">
          <mxGeometry x="200" y="120" width="200" height="120" as="geometry" />
        </mxCell>
        <mxCell id="0eGZFxeLxxKvC2eL4ryd-2" value="Room Call" style="text;html=1;strokeColor=none;fillColor=none;align=center;verticalAlign=middle;whiteSpace=wrap;rounded=0;" vertex="1" parent="1">
          <mxGeometry x="270" y="90" width="60" height="30" as="geometry" />
        </mxCell>
        <mxCell id="0eGZFxeLxxKvC2eL4ryd-10" style="edgeStyle=orthogonalEdgeStyle;rounded=0;orthogonalLoop=1;jettySize=auto;html=1;exitX=0.25;exitY=0;exitDx=0;exitDy=0;entryX=0.75;entryY=1;entryDx=0;entryDy=0;" edge="1" parent="1" source="0eGZFxeLxxKvC2eL4ryd-3" target="0eGZFxeLxxKvC2eL4ryd-4">
          <mxGeometry relative="1" as="geometry">
            <Array as="points">
              <mxPoint x="273" y="280" />
              <mxPoint x="273" y="237" />
              <mxPoint x="273" y="237" />
            </Array>
          </mxGeometry>
        </mxCell>
        <mxCell id="0eGZFxeLxxKvC2eL4ryd-16" value="4" style="edgeLabel;html=1;align=center;verticalAlign=middle;resizable=0;points=[];" vertex="1" connectable="0" parent="0eGZFxeLxxKvC2eL4ryd-10">
          <mxGeometry x="0.2037" relative="1" as="geometry">
            <mxPoint as="offset" />
          </mxGeometry>
        </mxCell>
        <mxCell id="0eGZFxeLxxKvC2eL4ryd-3" value="AR Process" style="rounded=0;whiteSpace=wrap;html=1;" vertex="1" parent="1">
          <mxGeometry x="200" y="280" width="200" height="50" as="geometry" />
        </mxCell>
        <mxCell id="0eGZFxeLxxKvC2eL4ryd-8" style="edgeStyle=orthogonalEdgeStyle;rounded=0;orthogonalLoop=1;jettySize=auto;html=1;exitX=0.25;exitY=1;exitDx=0;exitDy=0;entryX=0.19;entryY=0.02;entryDx=0;entryDy=0;entryPerimeter=0;" edge="1" parent="1" source="0eGZFxeLxxKvC2eL4ryd-4" target="0eGZFxeLxxKvC2eL4ryd-3">
          <mxGeometry relative="1" as="geometry" />
        </mxCell>
        <mxCell id="0eGZFxeLxxKvC2eL4ryd-12" value="3" style="edgeLabel;html=1;align=center;verticalAlign=middle;resizable=0;points=[];" vertex="1" connectable="0" parent="0eGZFxeLxxKvC2eL4ryd-8">
          <mxGeometry x="-0.0983" relative="1" as="geometry">
            <mxPoint as="offset" />
          </mxGeometry>
        </mxCell>
        <mxCell id="0eGZFxeLxxKvC2eL4ryd-4" value="session" style="rounded=0;whiteSpace=wrap;html=1;" vertex="1" parent="1">
          <mxGeometry x="220" y="165" width="70" height="30" as="geometry" />
        </mxCell>
        <mxCell id="0eGZFxeLxxKvC2eL4ryd-11" style="edgeStyle=orthogonalEdgeStyle;rounded=0;orthogonalLoop=1;jettySize=auto;html=1;exitX=0.5;exitY=1;exitDx=0;exitDy=0;entryX=0.779;entryY=-0.021;entryDx=0;entryDy=0;entryPerimeter=0;" edge="1" parent="1" source="0eGZFxeLxxKvC2eL4ryd-5" target="0eGZFxeLxxKvC2eL4ryd-3">
          <mxGeometry relative="1" as="geometry" />
        </mxCell>
        <mxCell id="0eGZFxeLxxKvC2eL4ryd-13" value="1" style="edgeLabel;html=1;align=center;verticalAlign=middle;resizable=0;points=[];" vertex="1" connectable="0" parent="0eGZFxeLxxKvC2eL4ryd-11">
          <mxGeometry x="-0.292" y="2" relative="1" as="geometry">
            <mxPoint as="offset" />
          </mxGeometry>
        </mxCell>
        <mxCell id="0eGZFxeLxxKvC2eL4ryd-5" value="AR UI" style="rounded=0;whiteSpace=wrap;html=1;" vertex="1" parent="1">
          <mxGeometry x="320" y="165" width="70" height="30" as="geometry" />
        </mxCell>
        <mxCell id="0eGZFxeLxxKvC2eL4ryd-7" style="edgeStyle=orthogonalEdgeStyle;rounded=0;orthogonalLoop=1;jettySize=auto;html=1;exitX=1;exitY=0.5;exitDx=0;exitDy=0;entryX=0;entryY=0.5;entryDx=0;entryDy=0;" edge="1" parent="1" source="0eGZFxeLxxKvC2eL4ryd-6" target="0eGZFxeLxxKvC2eL4ryd-4">
          <mxGeometry relative="1" as="geometry" />
        </mxCell>
        <mxCell id="0eGZFxeLxxKvC2eL4ryd-15" value="2" style="edgeLabel;html=1;align=center;verticalAlign=middle;resizable=0;points=[];" vertex="1" connectable="0" parent="0eGZFxeLxxKvC2eL4ryd-7">
          <mxGeometry x="-0.1" y="-1" relative="1" as="geometry">
            <mxPoint as="offset" />
          </mxGeometry>
        </mxCell>
        <mxCell id="0eGZFxeLxxKvC2eL4ryd-6" value="RTC Lib" style="rounded=0;whiteSpace=wrap;html=1;" vertex="1" parent="1">
          <mxGeometry x="40" y="140" width="120" height="80" as="geometry" />
        </mxCell>
        <mxCell id="0eGZFxeLxxKvC2eL4ryd-18" value="" style="rounded=0;whiteSpace=wrap;html=1;" vertex="1" parent="1">
          <mxGeometry x="214" y="450" width="200" height="140" as="geometry" />
        </mxCell>
        <mxCell id="0eGZFxeLxxKvC2eL4ryd-78" style="edgeStyle=orthogonalEdgeStyle;rounded=0;orthogonalLoop=1;jettySize=auto;html=1;exitX=0.75;exitY=0;exitDx=0;exitDy=0;entryX=0.25;entryY=1;entryDx=0;entryDy=0;" edge="1" parent="1" source="0eGZFxeLxxKvC2eL4ryd-21" target="0eGZFxeLxxKvC2eL4ryd-44">
          <mxGeometry relative="1" as="geometry" />
        </mxCell>
        <mxCell id="0eGZFxeLxxKvC2eL4ryd-21" value="AR Process" style="rounded=0;whiteSpace=wrap;html=1;" vertex="1" parent="1">
          <mxGeometry x="214" y="660" width="476" height="50" as="geometry" />
        </mxCell>
        <mxCell id="0eGZFxeLxxKvC2eL4ryd-42" style="edgeStyle=orthogonalEdgeStyle;rounded=0;orthogonalLoop=1;jettySize=auto;html=1;exitX=0.5;exitY=1;exitDx=0;exitDy=0;entryX=0;entryY=0.5;entryDx=0;entryDy=0;" edge="1" parent="1" source="0eGZFxeLxxKvC2eL4ryd-24" target="0eGZFxeLxxKvC2eL4ryd-40">
          <mxGeometry relative="1" as="geometry" />
        </mxCell>
        <mxCell id="0eGZFxeLxxKvC2eL4ryd-24" value="session" style="rounded=0;whiteSpace=wrap;html=1;" vertex="1" parent="1">
          <mxGeometry x="234" y="495" width="70" height="30" as="geometry" />
        </mxCell>
        <mxCell id="0eGZFxeLxxKvC2eL4ryd-41" style="edgeStyle=orthogonalEdgeStyle;rounded=0;orthogonalLoop=1;jettySize=auto;html=1;exitX=0.5;exitY=1;exitDx=0;exitDy=0;entryX=0.5;entryY=0;entryDx=0;entryDy=0;" edge="1" parent="1" source="0eGZFxeLxxKvC2eL4ryd-27" target="0eGZFxeLxxKvC2eL4ryd-40">
          <mxGeometry relative="1" as="geometry" />
        </mxCell>
        <mxCell id="0eGZFxeLxxKvC2eL4ryd-27" value="AR UI" style="rounded=0;whiteSpace=wrap;html=1;" vertex="1" parent="1">
          <mxGeometry x="330" y="495" width="70" height="30" as="geometry" />
        </mxCell>
        <mxCell id="0eGZFxeLxxKvC2eL4ryd-31" value="Room Call" style="text;html=1;align=center;verticalAlign=middle;resizable=0;points=[];autosize=1;strokeColor=none;fillColor=none;" vertex="1" parent="1">
          <mxGeometry x="270" y="420" width="70" height="20" as="geometry" />
        </mxCell>
        <mxCell id="0eGZFxeLxxKvC2eL4ryd-51" style="edgeStyle=orthogonalEdgeStyle;rounded=0;orthogonalLoop=1;jettySize=auto;html=1;exitX=0.5;exitY=1;exitDx=0;exitDy=0;entryX=0;entryY=0.5;entryDx=0;entryDy=0;" edge="1" parent="1" source="0eGZFxeLxxKvC2eL4ryd-35" target="0eGZFxeLxxKvC2eL4ryd-44">
          <mxGeometry relative="1" as="geometry" />
        </mxCell>
        <mxCell id="0eGZFxeLxxKvC2eL4ryd-76" style="edgeStyle=orthogonalEdgeStyle;rounded=0;orthogonalLoop=1;jettySize=auto;html=1;exitX=0.25;exitY=0;exitDx=0;exitDy=0;entryX=0.333;entryY=0;entryDx=0;entryDy=0;entryPerimeter=0;" edge="1" parent="1" source="0eGZFxeLxxKvC2eL4ryd-35" target="0eGZFxeLxxKvC2eL4ryd-45">
          <mxGeometry relative="1" as="geometry">
            <Array as="points">
              <mxPoint x="520" y="495" />
              <mxPoint x="520" y="380" />
              <mxPoint x="80" y="380" />
            </Array>
          </mxGeometry>
        </mxCell>
        <mxCell id="0eGZFxeLxxKvC2eL4ryd-35" value="session" style="rounded=0;whiteSpace=wrap;html=1;" vertex="1" parent="1">
          <mxGeometry x="510" y="495" width="70" height="30" as="geometry" />
        </mxCell>
        <mxCell id="0eGZFxeLxxKvC2eL4ryd-50" style="edgeStyle=orthogonalEdgeStyle;rounded=0;orthogonalLoop=1;jettySize=auto;html=1;exitX=0.5;exitY=1;exitDx=0;exitDy=0;entryX=0.5;entryY=0;entryDx=0;entryDy=0;" edge="1" parent="1" source="0eGZFxeLxxKvC2eL4ryd-37" target="0eGZFxeLxxKvC2eL4ryd-44">
          <mxGeometry relative="1" as="geometry" />
        </mxCell>
        <mxCell id="0eGZFxeLxxKvC2eL4ryd-37" value="AR UI" style="rounded=0;whiteSpace=wrap;html=1;" vertex="1" parent="1">
          <mxGeometry x="605" y="495" width="70" height="30" as="geometry" />
        </mxCell>
        <mxCell id="0eGZFxeLxxKvC2eL4ryd-38" value="Incoming Call" style="text;html=1;align=center;verticalAlign=middle;resizable=0;points=[];autosize=1;strokeColor=none;fillColor=none;" vertex="1" parent="1">
          <mxGeometry x="515" y="420" width="90" height="20" as="geometry" />
        </mxCell>
        <mxCell id="0eGZFxeLxxKvC2eL4ryd-40" value="AR Setting" style="rounded=0;whiteSpace=wrap;html=1;" vertex="1" parent="1">
          <mxGeometry x="330" y="550" width="70" height="30" as="geometry" />
        </mxCell>
        <mxCell id="0eGZFxeLxxKvC2eL4ryd-52" style="edgeStyle=orthogonalEdgeStyle;rounded=0;orthogonalLoop=1;jettySize=auto;html=1;exitX=0.5;exitY=1;exitDx=0;exitDy=0;entryX=0.896;entryY=-0.011;entryDx=0;entryDy=0;entryPerimeter=0;" edge="1" parent="1" source="0eGZFxeLxxKvC2eL4ryd-44" target="0eGZFxeLxxKvC2eL4ryd-21">
          <mxGeometry relative="1" as="geometry" />
        </mxCell>
        <mxCell id="0eGZFxeLxxKvC2eL4ryd-77" style="edgeStyle=orthogonalEdgeStyle;rounded=0;orthogonalLoop=1;jettySize=auto;html=1;exitX=0;exitY=0.75;exitDx=0;exitDy=0;entryX=0.25;entryY=1;entryDx=0;entryDy=0;" edge="1" parent="1" source="0eGZFxeLxxKvC2eL4ryd-44" target="0eGZFxeLxxKvC2eL4ryd-35">
          <mxGeometry relative="1" as="geometry" />
        </mxCell>
        <mxCell id="0eGZFxeLxxKvC2eL4ryd-44" value="AR Setting" style="rounded=0;whiteSpace=wrap;html=1;" vertex="1" parent="1">
          <mxGeometry x="605" y="550" width="70" height="30" as="geometry" />
        </mxCell>
        <mxCell id="0eGZFxeLxxKvC2eL4ryd-46" style="edgeStyle=orthogonalEdgeStyle;rounded=0;orthogonalLoop=1;jettySize=auto;html=1;exitX=0.75;exitY=0;exitDx=0;exitDy=0;entryX=0;entryY=0.5;entryDx=0;entryDy=0;" edge="1" parent="1" source="0eGZFxeLxxKvC2eL4ryd-45" target="0eGZFxeLxxKvC2eL4ryd-35">
          <mxGeometry relative="1" as="geometry">
            <Array as="points">
              <mxPoint x="130" y="400" />
              <mxPoint x="450" y="400" />
              <mxPoint x="450" y="510" />
            </Array>
          </mxGeometry>
        </mxCell>
        <mxCell id="0eGZFxeLxxKvC2eL4ryd-45" value="RTC Lib" style="rounded=0;whiteSpace=wrap;html=1;" vertex="1" parent="1">
          <mxGeometry x="40" y="450" width="120" height="80" as="geometry" />
        </mxCell>
        <mxCell id="0eGZFxeLxxKvC2eL4ryd-54" value="" style="rounded=0;whiteSpace=wrap;html=1;" vertex="1" parent="1">
          <mxGeometry x="234" y="820" width="200" height="140" as="geometry" />
        </mxCell>
        <mxCell id="0eGZFxeLxxKvC2eL4ryd-75" style="edgeStyle=orthogonalEdgeStyle;rounded=0;orthogonalLoop=1;jettySize=auto;html=1;exitX=0.5;exitY=0;exitDx=0;exitDy=0;entryX=0.25;entryY=1;entryDx=0;entryDy=0;" edge="1" parent="1" source="0eGZFxeLxxKvC2eL4ryd-55" target="0eGZFxeLxxKvC2eL4ryd-66">
          <mxGeometry relative="1" as="geometry" />
        </mxCell>
        <mxCell id="0eGZFxeLxxKvC2eL4ryd-55" value="AR Process" style="rounded=0;whiteSpace=wrap;html=1;" vertex="1" parent="1">
          <mxGeometry x="231" y="1020" width="206" height="40" as="geometry" />
        </mxCell>
        <mxCell id="0eGZFxeLxxKvC2eL4ryd-56" style="edgeStyle=orthogonalEdgeStyle;rounded=0;orthogonalLoop=1;jettySize=auto;html=1;exitX=0.5;exitY=1;exitDx=0;exitDy=0;entryX=0;entryY=0.5;entryDx=0;entryDy=0;" edge="1" parent="1" source="0eGZFxeLxxKvC2eL4ryd-57" target="0eGZFxeLxxKvC2eL4ryd-66">
          <mxGeometry relative="1" as="geometry" />
        </mxCell>
        <mxCell id="0eGZFxeLxxKvC2eL4ryd-73" style="edgeStyle=orthogonalEdgeStyle;rounded=0;orthogonalLoop=1;jettySize=auto;html=1;exitX=0;exitY=0.75;exitDx=0;exitDy=0;entryX=1;entryY=0.75;entryDx=0;entryDy=0;" edge="1" parent="1" source="0eGZFxeLxxKvC2eL4ryd-57" target="0eGZFxeLxxKvC2eL4ryd-70">
          <mxGeometry relative="1" as="geometry" />
        </mxCell>
        <mxCell id="0eGZFxeLxxKvC2eL4ryd-57" value="session" style="rounded=0;whiteSpace=wrap;html=1;" vertex="1" parent="1">
          <mxGeometry x="254" y="865" width="70" height="30" as="geometry" />
        </mxCell>
        <mxCell id="0eGZFxeLxxKvC2eL4ryd-58" style="edgeStyle=orthogonalEdgeStyle;rounded=0;orthogonalLoop=1;jettySize=auto;html=1;exitX=0.5;exitY=1;exitDx=0;exitDy=0;entryX=0.5;entryY=0;entryDx=0;entryDy=0;" edge="1" parent="1" source="0eGZFxeLxxKvC2eL4ryd-59" target="0eGZFxeLxxKvC2eL4ryd-66">
          <mxGeometry relative="1" as="geometry" />
        </mxCell>
        <mxCell id="0eGZFxeLxxKvC2eL4ryd-59" value="AR UI" style="rounded=0;whiteSpace=wrap;html=1;" vertex="1" parent="1">
          <mxGeometry x="350" y="865" width="70" height="30" as="geometry" />
        </mxCell>
        <mxCell id="0eGZFxeLxxKvC2eL4ryd-60" value="Room Call" style="text;html=1;align=center;verticalAlign=middle;resizable=0;points=[];autosize=1;strokeColor=none;fillColor=none;" vertex="1" parent="1">
          <mxGeometry x="290" y="790" width="70" height="20" as="geometry" />
        </mxCell>
        <mxCell id="0eGZFxeLxxKvC2eL4ryd-72" style="edgeStyle=orthogonalEdgeStyle;rounded=0;orthogonalLoop=1;jettySize=auto;html=1;exitX=0.5;exitY=1;exitDx=0;exitDy=0;entryX=0.75;entryY=0;entryDx=0;entryDy=0;" edge="1" parent="1" source="0eGZFxeLxxKvC2eL4ryd-66" target="0eGZFxeLxxKvC2eL4ryd-55">
          <mxGeometry relative="1" as="geometry" />
        </mxCell>
        <mxCell id="0eGZFxeLxxKvC2eL4ryd-74" style="edgeStyle=orthogonalEdgeStyle;rounded=0;orthogonalLoop=1;jettySize=auto;html=1;exitX=0;exitY=0.75;exitDx=0;exitDy=0;entryX=0.16;entryY=0.986;entryDx=0;entryDy=0;entryPerimeter=0;" edge="1" parent="1" source="0eGZFxeLxxKvC2eL4ryd-66" target="0eGZFxeLxxKvC2eL4ryd-57">
          <mxGeometry relative="1" as="geometry" />
        </mxCell>
        <mxCell id="0eGZFxeLxxKvC2eL4ryd-66" value="AR Setting" style="rounded=0;whiteSpace=wrap;html=1;" vertex="1" parent="1">
          <mxGeometry x="350" y="920" width="70" height="30" as="geometry" />
        </mxCell>
        <mxCell id="0eGZFxeLxxKvC2eL4ryd-71" style="edgeStyle=orthogonalEdgeStyle;rounded=0;orthogonalLoop=1;jettySize=auto;html=1;exitX=1;exitY=0.5;exitDx=0;exitDy=0;entryX=0;entryY=0.25;entryDx=0;entryDy=0;" edge="1" parent="1" source="0eGZFxeLxxKvC2eL4ryd-70" target="0eGZFxeLxxKvC2eL4ryd-57">
          <mxGeometry relative="1" as="geometry" />
        </mxCell>
        <mxCell id="0eGZFxeLxxKvC2eL4ryd-70" value="RTC Lib" style="rounded=0;whiteSpace=wrap;html=1;" vertex="1" parent="1">
          <mxGeometry x="60" y="820" width="120" height="80" as="geometry" />
        </mxCell>
      </root>
    </mxGraphModel>
  </diagram>
</mxfile>
